<svg xmlns="http://www.w3.org/2000/svg" viewBox="0 0 100 100">
  <defs>
    <clipPath id="ball-clip">
      <circle cx="50" cy="50" r="27"/>
    </clipPath>
  </defs>
  <circle cx="50" cy="50" r="50" fill="#16a34a"/>
  <circle cx="50" cy="50" r="27" fill="#f9fafb"/>
  <g clip-path="url(#ball-clip)" fill="#111827">
    <polygon points="50,42 57.6,47.5 54.7,56.3 45.3,56.3 42.4,47.5"/>
    <polygon points="50,38 42.4,32.5 45.3,23.5 54.7,23.5 57.6,32.5"/>
    <polygon points="61.4,46.3 64.3,37.3 73.7,37.3 76.6,46.3 69,51.8"/>
    <polygon points="57.1,59.7 66.5,59.7 69.4,68.7 61.8,74.2 54.2,68.7"/>
    <polygon points="42.9,59.7 45.8,68.7 38.2,74.2 30.6,68.7 33.5,59.7"/>
    <polygon points="38.6,46.3 31,51.8 23.4,46.3 26.3,37.3 35.7,37.3"/>
  </g>
  <circle cx="50" cy="50" r="27" fill="none" stroke="#9ca3af" stroke-width="1.2"/>
</svg>
